<svg width="16px" height="16px" viewBox="0 0 16 16" version="1.1" xmlns="http://www.w3.org/2000/svg" xmlns:xlink="http://www.w3.org/1999/xlink"><g id="Q&amp;A-(Discussion)" stroke="none" stroke-width="1" fill="none" fill-rule="evenodd"><g id="Company-Self-Profile" transform="translate(-1151.000000, -6281.000000)" fill="#757982"><g id="Group-21-Copy" transform="translate(545.000000, 6192.000000)"><g id="Group-39" transform="translate(20.000000, 85.000000)"><g id="Group-31" transform="translate(586.000000, 4.000000)"><path d="M15.2499,9.1267 C15.6639,9.1267 15.9999,9.4627 15.9999,9.8767 L15.9999,9.8767 L15.9999,14.4827 C15.9999,14.8967 15.6639,15.2327 15.2499,15.2327 L15.2499,15.2327 L0.7499,15.2327 C0.3359,15.2327 -0.0001,14.8967 -0.0001,14.4827 L-0.0001,14.4827 L-0.0001,9.8767 C-0.0001,9.4627 0.3359,9.1267 0.7499,9.1267 C1.1639,9.1267 1.4999,9.4627 1.4999,9.8767 L1.4999,9.8767 L1.4999,13.7327 L14.4999,13.7327 L14.4999,9.8767 C14.4999,9.4627 14.8359,9.1267 15.2499,9.1267 Z M8.0003,0.000599999996 C8.4143,0.000599999996 8.7503,0.3356 8.7503,0.7506 L8.7503,0.7506 L8.7503,8.6916 L10.5423,6.8996 C10.8353,6.6066 11.3093,6.6066 11.6023,6.8996 C11.8953,7.1916 11.8953,7.6666 11.6023,7.9596 L11.6023,7.9596 L8.5303,11.0326 C8.4613,11.1016 8.3783,11.1556 8.2873,11.1936 C8.1973,11.2316 8.1033,11.2496 8.0073,11.2506 C8.0053,11.2506 8.0033,11.2526 8.0003,11.2526 L8.0003,11.2526 C7.8973,11.2496 7.8023,11.2316 7.7143,11.1936 C7.5933,11.1446 7.4983,11.0576 7.4193,10.9576 L7.4193,10.9576 L4.3603,7.8986 C4.0673,7.6056 4.0673,7.1306 4.3603,6.8376 C4.6533,6.5446 5.1283,6.5446 5.4213,6.8376 L5.4213,6.8376 L7.2503,8.6666 L7.2503,0.7506 C7.2503,0.3356 7.5863,0.000599999996 8.0003,0.000599999996 Z" id="Combined-Shape"></path></g></g></g></g></g></svg>