<svg width="24" height="24" viewBox="0 0 24 24" fill="none" xmlns="http://www.w3.org/2000/svg">
<path d="M17.1992 12.6354C17.2201 11.0771 18.0733 9.63798 19.4602 8.82216C18.5817 7.62052 17.1617 6.88637 15.6303 6.84053C14.0188 6.67887 12.4568 7.76302 11.6358 7.76302C10.7992 7.76302 9.53501 6.85637 8.17334 6.88303C6.38245 6.93886 4.75263 7.88968 3.88113 9.38882C2.02581 12.4638 3.40925 16.9837 5.18707 19.4695C6.07686 20.6869 7.11552 22.0461 8.47632 21.9986C9.80752 21.9461 10.3046 21.1861 11.911 21.1861C13.5025 21.1861 13.9691 21.9986 15.3569 21.9677C16.7848 21.9452 17.685 20.7453 18.5434 19.5161C19.1825 18.6486 19.6744 17.6903 20 16.6762C18.304 15.9895 17.2009 14.3987 17.1992 12.6354Z" fill="#013870"/>
<path d="M14.5774 5.20577C15.3557 4.31079 15.7397 3.16081 15.6465 2C14.4573 2.12 13.3576 2.66415 12.5689 3.52414C11.7896 4.37329 11.3944 5.48327 11.471 6.61158C12.6768 6.62325 13.8217 6.10492 14.5774 5.20577Z" fill="#013870"/>
</svg>
