<svg width="28" height="28" viewBox="0 0 28 28" fill="none" xmlns="http://www.w3.org/2000/svg">
<g id="calendar-clock 1">
<path id="Vector" d="M18.8608 12.0935C15.109 12.0935 12.0552 15.1463 12.0552 18.899C12.0552 22.6304 15.109 25.6667 18.8608 25.6667C22.6126 25.6667 25.6663 22.6139 25.6663 18.8611C25.6663 15.1297 22.6126 12.0935 18.8608 12.0935ZM18.8608 23.7222C16.1804 23.7222 13.9997 21.5581 13.9997 18.899C13.9997 16.2186 16.1804 14.0379 18.8608 14.0379C21.5412 14.0379 23.7219 16.2021 23.7219 18.8611C23.7219 21.5415 21.5412 23.7222 18.8608 23.7222ZM20.5204 19.146C20.9005 19.5261 20.9005 20.1406 20.5204 20.5207C20.3308 20.7103 20.0819 20.8056 19.833 20.8056C19.5841 20.8056 19.3352 20.7103 19.1456 20.5207L18.1734 19.5485C17.9906 19.3657 17.8886 19.1188 17.8886 18.8611V16.9167C17.8886 16.38 18.3231 15.9445 18.8608 15.9445C19.3984 15.9445 19.833 16.38 19.833 16.9167V18.4586L20.5204 19.146ZM25.6663 9.1389V11.0833C25.6663 11.62 25.2318 12.0556 24.6941 12.0556C24.1565 12.0556 23.7219 11.62 23.7219 11.0833V9.1389C23.7219 7.53084 22.4133 6.22223 20.8052 6.22223H7.19412C5.58606 6.22223 4.27745 7.53084 4.27745 9.1389V10.1111H13.0275C13.5641 10.1111 13.9997 10.5467 13.9997 11.0833C13.9997 11.62 13.5641 12.0556 13.0275 12.0556H4.27745V20.8056C4.27745 22.4136 5.58606 23.7222 7.19412 23.7222H11.083C11.6197 23.7222 12.0552 24.1578 12.0552 24.6945C12.0552 25.2311 11.6197 25.6667 11.083 25.6667H7.19412C4.5137 25.6667 2.33301 23.486 2.33301 20.8056V9.1389C2.33301 6.45848 4.5137 4.27779 7.19412 4.27779H8.16634V3.30557C8.16634 2.7689 8.6019 2.33334 9.13856 2.33334C9.67523 2.33334 10.1108 2.7689 10.1108 3.30557V4.27779H17.8886V3.30557C17.8886 2.7689 18.3231 2.33334 18.8608 2.33334C19.3984 2.33334 19.833 2.7689 19.833 3.30557V4.27779H20.8052C23.4856 4.27779 25.6663 6.45848 25.6663 9.1389Z" fill="#013870"/>
</g>
</svg>
