<svg width="24" height="24" viewBox="0 0 24 24" fill="none" xmlns="http://www.w3.org/2000/svg">
<path d="M20.632 2.20098H17.816V1.80098C17.816 1.5888 17.7317 1.38532 17.5817 1.23529C17.4317 1.08526 17.2282 1.00098 17.016 1.00098C16.8038 1.00098 16.6003 1.08526 16.4503 1.23529C16.3003 1.38532 16.216 1.5888 16.216 1.80098V2.20098H7.784V1.80098C7.784 1.5888 7.69971 1.38532 7.54969 1.23529C7.39966 1.08526 7.19617 1.00098 6.984 1.00098C6.77183 1.00098 6.56834 1.08526 6.41831 1.23529C6.26829 1.38532 6.184 1.5888 6.184 1.80098V2.20098H3.368C2.4754 2.20309 1.61996 2.55861 0.988798 3.18977C0.357633 3.82094 0.00211267 4.67638 0 5.56898V19.601C0.00211267 20.4936 0.357633 21.349 0.988798 21.9802C1.61996 22.6113 2.4754 22.9669 3.368 22.969H20.632C21.5246 22.9669 22.38 22.6113 23.0112 21.9802C23.6424 21.349 23.9979 20.4936 24 19.601V5.56898C23.9979 4.67638 23.6424 3.82094 23.0112 3.18977C22.38 2.55861 21.5246 2.20309 20.632 2.20098ZM3.368 3.80098H6.184V4.20098C6.184 4.41315 6.26829 4.61663 6.41831 4.76666C6.56834 4.91669 6.77183 5.00098 6.984 5.00098C7.19617 5.00098 7.39966 4.91669 7.54969 4.76666C7.69971 4.61663 7.784 4.41315 7.784 4.20098V3.80098H16.216V4.20098C16.216 4.41315 16.3003 4.61663 16.4503 4.76666C16.6003 4.91669 16.8038 5.00098 17.016 5.00098C17.2282 5.00098 17.4317 4.91669 17.5817 4.76666C17.7317 4.61663 17.816 4.41315 17.816 4.20098V3.80098H20.632C21.1009 3.80098 21.5506 3.98725 21.8822 4.31881C22.2137 4.65038 22.4 5.10007 22.4 5.56898V7.46498H1.6V5.56898C1.6 5.10007 1.78627 4.65038 2.11784 4.31881C2.4494 3.98725 2.8991 3.80098 3.368 3.80098ZM20.632 21.401H3.368C3.13311 21.401 2.90056 21.3542 2.68394 21.2634C2.46733 21.1726 2.27098 21.0395 2.10638 20.8719C1.94178 20.7043 1.81223 20.5056 1.72528 20.2874C1.63834 20.0692 1.59575 19.8358 1.6 19.601V9.06498H22.4V19.601C22.4043 19.8358 22.3617 20.0692 22.2747 20.2874C22.1878 20.5056 22.0582 20.7043 21.8936 20.8719C21.729 21.0395 21.5327 21.1726 21.3161 21.2634C21.0994 21.3542 20.8669 21.401 20.632 21.401Z" fill="#38B6FF"/>
</svg>
