<svg width="20" height="19" viewBox="0 0 20 19" fill="none" xmlns="http://www.w3.org/2000/svg">
<path d="M9.08588 18.1731C7.62547 18.173 6.18661 17.8209 4.89119 17.1466C3.59577 16.4723 2.48196 15.4957 1.64412 14.2996C0.806277 13.1034 0.26909 11.7229 0.0780678 10.2751C-0.112954 8.82723 0.0478171 7.35467 0.546762 5.98214C1.04571 4.60962 1.86812 3.37757 2.94434 2.39039C4.02055 1.40321 5.31886 0.689968 6.72926 0.3111C8.13966 -0.0677681 9.6206 -0.101102 11.0466 0.213921C12.4726 0.528944 13.8017 1.18304 14.9213 2.1208C15.106 2.27564 15.2216 2.49751 15.2428 2.73761C15.2639 2.97772 15.1888 3.21638 15.0339 3.4011C14.8791 3.58582 14.6572 3.70146 14.4171 3.72259C14.177 3.74372 13.9384 3.66861 13.7536 3.51377C12.5052 2.46876 10.9421 1.8731 9.31479 1.82224C7.6875 1.77139 6.09025 2.2683 4.779 3.23332C3.46774 4.19835 2.51841 5.57563 2.08313 7.14445C1.64784 8.71327 1.75181 10.3828 2.37838 11.8855C3.00494 13.3882 4.11782 14.637 5.53867 15.4319C6.95952 16.2268 8.60609 16.5217 10.2145 16.2693C11.8229 16.017 13.3 15.232 14.4092 14.0401C15.5183 12.8483 16.1952 11.3186 16.3315 9.69626C16.34 9.57688 16.3724 9.4604 16.4265 9.35368C16.4807 9.24695 16.5557 9.15212 16.647 9.07476C16.7383 8.9974 16.8442 8.93906 16.9584 8.90317C17.0726 8.86727 17.1928 8.85455 17.3119 8.86575C17.5519 8.88588 17.7741 9.00045 17.9296 9.18429C18.0852 9.36813 18.1614 9.60619 18.1415 9.84619C17.9403 12.1128 16.9004 14.2228 15.2253 15.7629C13.5501 17.3031 11.3605 18.1626 9.08497 18.1731H9.08588ZM11.134 11.9561L19.7226 3.36839C19.8094 3.28457 19.8786 3.1843 19.9262 3.07344C19.9739 2.96258 19.9989 2.84335 20 2.7227C20.001 2.60205 19.978 2.48239 19.9323 2.37072C19.8866 2.25905 19.8192 2.1576 19.7339 2.07228C19.6485 1.98697 19.5471 1.9195 19.4354 1.87381C19.3237 1.82812 19.2041 1.80513 19.0834 1.80618C18.9628 1.80723 18.8436 1.83229 18.7327 1.87992C18.6218 1.92754 18.5216 1.99676 18.4378 2.08355L9.84915 10.6713C9.76022 10.7612 9.6533 10.8313 9.53539 10.877C9.41747 10.9227 9.29123 10.943 9.16493 10.9366C9.0431 10.9326 8.9234 10.9035 8.81333 10.8511C8.70326 10.7987 8.60518 10.7242 8.52523 10.6322L6.16455 7.61726C6.09092 7.52335 5.99952 7.44486 5.89557 7.38627C5.79161 7.32769 5.67713 7.29015 5.55866 7.27581C5.4402 7.26146 5.32007 7.27059 5.20513 7.30267C5.0902 7.33476 4.98271 7.38916 4.8888 7.46279C4.79489 7.53641 4.7164 7.62781 4.65781 7.73177C4.59922 7.83573 4.56169 7.95021 4.54734 8.06867C4.533 8.18714 4.54213 8.30727 4.57421 8.4222C4.60629 8.53714 4.6607 8.64463 4.73432 8.73854L7.11137 11.7734C7.3542 12.0644 7.65489 12.3016 7.99435 12.4701C8.3338 12.6386 8.70459 12.7346 9.08315 12.7521C9.12374 12.7539 9.16432 12.7548 9.20491 12.7548C9.92831 12.7544 10.622 12.4672 11.134 11.9561Z" fill="#38B6FF"/>
</svg>
