<svg width="28" height="28" viewBox="0 0 28 28" fill="none" xmlns="http://www.w3.org/2000/svg">
<circle cx="14" cy="14" r="10.5" stroke="#013870" stroke-width="1.5" stroke-linecap="round" stroke-linejoin="round"/>
<path d="M17.2667 10.5C16.836 9.75292 16.0285 9.30428 15.1667 9.3333H12.8333C11.5447 9.3333 10.5 10.378 10.5 11.6666C10.5 12.9553 11.5447 14 12.8333 14H15.1667C16.4553 14 17.5 15.0446 17.5 16.3333C17.5 17.622 16.4553 18.6666 15.1667 18.6666H12.8333C11.9715 18.6956 11.164 18.247 10.7333 17.5" stroke="#013870" stroke-width="1.5" stroke-linecap="round" stroke-linejoin="round"/>
<path d="M14.7503 7C14.7503 6.58579 14.4145 6.25 14.0003 6.25C13.5861 6.25 13.2503 6.58579 13.2503 7H14.7503ZM13.2503 9.33333C13.2503 9.74755 13.5861 10.0833 14.0003 10.0833C14.4145 10.0833 14.7503 9.74755 14.7503 9.33333H13.2503ZM14.7503 18.6667C14.7503 18.2525 14.4145 17.9167 14.0003 17.9167C13.5861 17.9167 13.2503 18.2525 13.2503 18.6667H14.7503ZM13.2503 21C13.2503 21.4142 13.5861 21.75 14.0003 21.75C14.4145 21.75 14.7503 21.4142 14.7503 21H13.2503ZM13.2503 7V9.33333H14.7503V7H13.2503ZM13.2503 18.6667V21H14.7503V18.6667H13.2503Z" fill="#013870"/>
</svg>
