<svg width="28" height="29" viewBox="0 0 28 29" fill="none" xmlns="http://www.w3.org/2000/svg">
<g id="Group 459">
<circle id="Oval" cx="14" cy="14.9862" r="10.5" stroke="#013870" stroke-width="1.5" stroke-linecap="round" stroke-linejoin="round"/>
<path id="Path" d="M17.2667 11.4862C16.836 10.7391 16.0285 10.2905 15.1667 10.3195H12.8333C11.5447 10.3195 10.5 11.3642 10.5 12.6528C10.5 13.9415 11.5447 14.9862 12.8333 14.9862H15.1667C16.4553 14.9862 17.5 16.0308 17.5 17.3195C17.5 18.6082 16.4553 19.6528 15.1667 19.6528H12.8333C11.9715 19.6819 11.164 19.2332 10.7333 18.4862" stroke="#013870" stroke-width="1.5" stroke-linecap="round" stroke-linejoin="round"/>
<path id="Shape" d="M14.7503 7.98621C14.7503 7.57199 14.4145 7.23621 14.0003 7.23621C13.5861 7.23621 13.2503 7.57199 13.2503 7.98621H14.7503ZM13.2503 10.3195C13.2503 10.7338 13.5861 11.0695 14.0003 11.0695C14.4145 11.0695 14.7503 10.7338 14.7503 10.3195H13.2503ZM14.7503 19.6529C14.7503 19.2387 14.4145 18.9029 14.0003 18.9029C13.5861 18.9029 13.2503 19.2387 13.2503 19.6529H14.7503ZM13.2503 21.9862C13.2503 22.4004 13.5861 22.7362 14.0003 22.7362C14.4145 22.7362 14.7503 22.4004 14.7503 21.9862H13.2503ZM13.2503 7.98621V10.3195H14.7503V7.98621H13.2503ZM13.2503 19.6529V21.9862H14.7503V19.6529H13.2503Z" fill="#013870"/>
</g>
</svg>
