<svg width="24" height="24" viewBox="0 0 24 24" fill="none" xmlns="http://www.w3.org/2000/svg">
<g clip-path="url(#clip0_763_3009)">
<path d="M19.445 20.457L23.874 12.486C23.9566 12.3374 24 12.1701 24 12C24 11.8299 23.9566 11.6626 23.874 11.514L19.445 3.543C19.1852 3.0754 18.8051 2.68578 18.3441 2.41448C17.883 2.14318 17.3579 2.00008 16.823 2L4.99996 2C3.67436 2.00159 2.40351 2.52888 1.46618 3.46622C0.528839 4.40356 0.00154495 5.67441 -4.19617e-05 7V17C0.00154495 18.3256 0.528839 19.5964 1.46618 20.5338C2.40351 21.4711 3.67436 21.9984 4.99996 22H16.823C17.3579 21.9999 17.883 21.8568 18.3441 21.5855C18.8051 21.3142 19.1852 20.9246 19.445 20.457ZM4.99996 20C4.20431 20 3.44125 19.6839 2.87864 19.1213C2.31603 18.5587 1.99996 17.7956 1.99996 17V7C1.99996 6.20435 2.31603 5.44129 2.87864 4.87868C3.44125 4.31607 4.20431 4 4.99996 4L16.823 4C17.0018 3.99956 17.1776 4.0471 17.3318 4.13768C17.4861 4.22827 17.6132 4.35856 17.7 4.515L21.856 12L17.7 19.486C17.6131 19.6422 17.4859 19.7723 17.3316 19.8627C17.1774 19.9531 17.0017 20.0005 16.823 20H4.99996Z" fill="#013870"/>
<path d="M15.5 12C15.5 12.8284 16.1716 13.5 17 13.5C17.8284 13.5 18.5 12.8284 18.5 12C18.5 11.1716 17.8284 10.5 17 10.5C16.1716 10.5 15.5 11.1716 15.5 12Z" fill="#013870"/>
</g>
<defs>
<clipPath id="clip0_763_3009">
<rect width="24" height="24" fill="white" transform="matrix(0 1 -1 0 24 0)"/>
</clipPath>
</defs>
</svg>
