<svg width="18" height="20" viewBox="0 0 18 20" fill="none" xmlns="http://www.w3.org/2000/svg">
<path d="M0.368671 0.736545C0.131836 1.04951 0 1.43451 0 1.8465V18.1532C0 18.5359 0.114141 18.8954 0.320312 19.1957L9.19296 9.94095L0.368671 0.736545ZM10.0053 9.09349L12.8837 6.09115L2.76578 0.24971C2.32672 -0.00396205 1.82285 -0.0640792 1.35273 0.0680691L10.0053 9.09349ZM10.0053 10.7883L1.26523 19.9048C1.45167 19.9677 1.6471 19.9998 1.84387 20C2.16051 20 2.47726 19.9167 2.76582 19.7501L12.9565 13.8664L10.0053 10.7883ZM16.8878 8.40302L13.9298 6.69513L10.8179 9.94083L14.0024 13.2626L16.8878 11.5967C17.4652 11.2634 17.8099 10.6664 17.8099 9.99986C17.8099 9.33322 17.4652 8.73626 16.8878 8.40302Z" fill="#013870"/>
</svg>
