<svg width="24" height="24" viewBox="0 0 24 24" fill="none" xmlns="http://www.w3.org/2000/svg">
<path d="M11.829 11.5609C13.4172 11.5609 14.7923 10.9912 15.9162 9.86731C17.0398 8.74362 17.6096 7.36869 17.6096 5.78029C17.6096 4.19235 17.04 2.81728 15.916 1.69317C14.7921 0.569624 13.417 0 11.829 0C10.2405 0 8.86555 0.569624 7.74186 1.69336C6.61818 2.81709 6.04832 4.19221 6.04832 5.78029C6.04832 7.36869 6.61813 8.74381 7.74191 9.86754C8.86597 10.9911 10.2411 11.5609 11.8289 11.5609H11.829ZM8.7365 2.68781C9.59872 1.82554 10.6102 1.40643 11.829 1.40643C13.0475 1.40643 14.0592 1.82554 14.9216 2.68781C15.7839 3.55021 16.2032 4.56187 16.2032 5.78024C16.2032 6.99899 15.7839 8.0105 14.9216 8.8729C14.0592 9.73536 13.0475 10.1545 11.829 10.1545C10.6106 10.1545 9.59914 9.73517 8.7365 8.8729C7.87405 8.01069 7.45475 6.99903 7.45475 5.78029C7.45475 4.56187 7.87405 3.55021 8.7365 2.68781ZM21.9435 18.4548C21.9111 17.9872 21.8455 17.477 21.749 16.9383C21.6516 16.3956 21.5262 15.8825 21.376 15.4136C21.2208 14.9289 21.01 14.4503 20.7491 13.9916C20.4786 13.5155 20.1608 13.101 19.8041 12.7599C19.4311 12.403 18.9745 12.1161 18.4464 11.9067C17.9201 11.6986 17.3369 11.5931 16.7131 11.5931C16.4681 11.5931 16.2312 11.6936 15.7736 11.9916C15.4483 12.2034 15.1221 12.4137 14.7949 12.6225C14.4805 12.8229 14.0546 13.0106 13.5285 13.1805C13.0153 13.3466 12.4942 13.4308 11.9796 13.4308C11.4655 13.4308 10.9444 13.3466 10.4307 13.1805C9.90528 13.0107 9.47919 12.8231 9.16531 12.6227C8.8011 12.39 8.47157 12.1776 8.18572 11.9914C7.7285 11.6935 7.49155 11.5929 7.24658 11.5929C6.62254 11.5929 6.03955 11.6986 5.51348 11.907C4.98576 12.1159 4.52892 12.4028 4.15556 12.7601C3.79889 13.1013 3.48103 13.5157 3.21075 13.9916C2.95022 14.4503 2.73928 14.9287 2.58398 15.4138C2.43398 15.8827 2.30859 16.3956 2.21119 16.9383C2.11448 17.4763 2.04914 17.9866 2.0167 18.4554C1.98483 18.9137 1.96875 19.3906 1.96875 19.8726C1.96875 21.1254 2.367 22.1396 3.15234 22.8876C3.92798 23.6257 4.95412 24 6.2023 24H17.7585C19.0063 24 20.0324 23.6257 20.8082 22.8876C21.5938 22.1401 21.992 21.1256 21.992 19.8724C21.9918 19.3888 21.9756 18.9118 21.9435 18.4548ZM19.8385 21.8686C19.326 22.3564 18.6456 22.5935 17.7582 22.5935H6.20235C5.31487 22.5935 4.63443 22.3564 4.12209 21.8688C3.6195 21.3903 3.37523 20.7372 3.37523 19.8726C3.37523 19.4229 3.39004 18.9789 3.41976 18.5526C3.44864 18.1344 3.50779 17.6749 3.59554 17.1868C3.68212 16.7047 3.79232 16.2522 3.92343 15.8426C4.04925 15.4498 4.22081 15.061 4.43357 14.6863C4.63664 14.3292 4.87026 14.0229 5.12807 13.7761C5.36924 13.5452 5.67323 13.3563 6.03135 13.2146C6.36257 13.0834 6.73485 13.0116 7.13896 13.0008C7.18818 13.0271 7.27593 13.077 7.418 13.1696C7.70713 13.3581 8.04036 13.5731 8.4088 13.8083C8.82411 14.0731 9.3591 14.3122 9.99833 14.5186C10.6518 14.7299 11.3183 14.8372 11.9799 14.8372C12.6415 14.8372 13.3081 14.7299 13.9613 14.5188C14.601 14.312 15.1359 14.0731 15.5517 13.8079C15.9288 13.567 16.2527 13.3583 16.5417 13.1696C16.6839 13.0772 16.7716 13.027 16.8208 13.0008C17.2251 13.0116 17.5974 13.0834 17.9288 13.2145C18.2867 13.3563 18.5907 13.5454 18.8319 13.7761C19.0897 14.0227 19.3233 14.3291 19.5264 14.6865C19.7393 15.061 19.9111 15.4501 20.0367 15.8425C20.168 16.2526 20.2784 16.7049 20.3648 17.1866C20.4523 17.6757 20.5117 18.1353 20.5406 18.5528V18.5531C20.5704 18.9777 20.5854 19.4216 20.5856 19.8726C20.5854 20.7374 20.3412 21.3904 19.8386 21.8686H19.8385Z" fill="#013870"/>
</svg>
