<svg width="24" height="24" viewBox="0 0 24 24" fill="none" xmlns="http://www.w3.org/2000/svg">
<path d="M8.39083 11.625C7.6525 10.8867 7.6525 9.705 8.37833 8.97833L9.77917 7.5775C10.105 7.25167 10.6317 7.25167 10.9575 7.5775C11.2833 7.90333 11.2833 8.43 10.9575 8.75583L9.55667 10.1567C9.48 10.2333 9.48 10.3575 9.55667 10.4342L10.91 11.7317C11.2417 12.05 11.2533 12.5783 10.9342 12.91C10.7708 13.0808 10.5517 13.1667 10.3325 13.1667C10.125 13.1667 9.91667 13.09 9.75583 12.935L8.39083 11.625ZM14.4425 10.1567C14.5192 10.2333 14.5192 10.3575 14.455 10.4217L13.09 11.7317C12.7583 12.05 12.7467 12.5783 13.0658 12.91C13.2292 13.0808 13.4483 13.1667 13.6675 13.1667C13.875 13.1667 14.0833 13.09 14.2442 12.935L15.6217 11.6133C16.3483 10.8867 16.3483 9.705 15.6217 8.97917L14.2208 7.57833C13.895 7.2525 13.3683 7.2525 13.0425 7.57833C12.7167 7.90417 12.7167 8.43083 13.0425 8.75667L14.4433 10.1575L14.4425 10.1567ZM22 16.5C22 17.8783 20.8783 19 19.5 19H4.5C3.12167 19 2 17.8783 2 16.5C2 15.4133 2.69667 14.4875 3.66667 14.1433V8.16667C3.66667 5.86917 5.53583 4 7.83333 4H16.1667C18.4642 4 20.3333 5.86917 20.3333 8.16667V14.1433C21.3033 14.4875 22 15.4133 22 16.5ZM5.33333 8.16667V14H9.08333C9.30417 14 9.51667 14.0875 9.6725 14.2442L10.2617 14.8333H13.7383L14.3275 14.2442C14.4842 14.0875 14.6958 14 14.9167 14H18.6667V8.16667C18.6667 6.78833 17.545 5.66667 16.1667 5.66667H7.83333C6.455 5.66667 5.33333 6.78833 5.33333 8.16667ZM20.3333 16.5C20.3333 16.0408 19.9592 15.6667 19.5 15.6667H15.2617L14.6725 16.2558C14.5158 16.4125 14.3042 16.5 14.0833 16.5H9.91667C9.69583 16.5 9.48333 16.4125 9.3275 16.2558L8.73833 15.6667H4.5C4.04083 15.6667 3.66667 16.0408 3.66667 16.5C3.66667 16.9592 4.04083 17.3333 4.5 17.3333H19.5C19.9592 17.3333 20.3333 16.9592 20.3333 16.5Z" fill="#013870"/>
</svg>
