<svg width="177" height="28" viewBox="0 0 177 28" fill="none" xmlns="http://www.w3.org/2000/svg">
<path d="M39.4113 21.3552C41.0356 21.3552 42.3315 20.9537 43.2986 20.1507C44.2659 19.3294 44.7587 18.3074 44.7587 17.0481C44.7587 15.4239 43.9009 14.2375 42.1854 13.5075C41.8386 13.3615 41.3094 13.1608 40.6341 12.9235L39.4478 12.4855C38.736 12.2118 38.3711 11.8833 38.3711 11.4818C38.3711 10.9889 38.8821 10.6057 39.8128 10.6057C40.8349 10.6057 42.1671 11.062 42.9702 11.719L44.558 9.12739C43.1891 7.99592 41.6014 7.43018 39.7581 7.43018C38.2798 7.43018 37.0752 7.83168 36.1445 8.61645C35.2138 9.40114 34.7392 10.405 34.7392 11.5911C34.7392 13.1424 35.4874 14.3106 36.9658 15.0954C37.349 15.2961 37.933 15.5151 38.6813 15.7888L39.8858 16.1903C40.6158 16.4641 40.9809 16.8109 40.9809 17.2306C40.9809 17.8694 40.2873 18.2162 39.4662 18.2162C38.0426 18.2162 36.7651 17.6504 35.6334 16.5188L33.918 19.0192C35.3232 20.5704 37.1666 21.3552 39.4113 21.3552Z" fill="#FEFEFE"/>
<path d="M51.3852 21.391C53.0095 21.391 54.3418 20.88 55.3456 19.858C56.3677 18.836 56.8787 17.5767 56.8787 16.0801C56.8787 14.5836 56.3677 13.3243 55.3456 12.3023C54.3418 11.262 53.0095 10.751 51.3852 10.751C49.761 10.751 48.447 11.262 47.4249 12.3023C46.4212 13.3243 45.9102 14.5836 45.9102 16.0801C45.9102 17.5767 46.4212 18.836 47.4249 19.858C48.447 20.88 49.761 21.391 51.3852 21.391ZM51.3852 18.3797C50.7465 18.3797 50.2172 18.1608 49.7792 17.7228C49.3412 17.2664 49.1223 16.7189 49.1223 16.062C49.1223 15.4232 49.3412 14.8939 49.7792 14.4558C50.2172 13.9996 50.7465 13.7805 51.3852 13.7805C52.0241 13.7805 52.5533 13.9996 52.9913 14.4376C53.4475 14.8756 53.6666 15.4232 53.6666 16.062C53.6666 16.7189 53.4475 17.2664 53.0095 17.7228C52.5715 18.1608 52.0241 18.3797 51.3852 18.3797Z" fill="#FEFEFE"/>
<path d="M63.0382 9.40084C63.5128 9.40084 64.0967 9.56508 64.7721 9.89355L65.8488 7.48452C64.699 6.90054 63.5857 6.6084 62.5089 6.6084C61.2314 6.6084 60.191 6.97342 59.388 7.68531C58.585 8.39704 58.1836 9.45556 58.1836 10.8245V11.0434V13.708V21.1177H61.3956V13.708H64.48V11.0434H61.3956V10.8974C61.3956 9.94834 62.0162 9.40084 63.0382 9.40084Z" fill="#FEFEFE"/>
<path d="M72.4863 17.9783C71.9023 18.2885 71.373 18.4346 70.8985 18.4346C70.0407 18.4346 69.6209 17.9053 69.6209 16.8284V13.7077H72.7784V11.043H69.6209V7.46582L66.4271 8.75705C66.4271 13.3809 66.3906 12.4634 66.3906 17.2118C66.3906 19.9859 67.6317 21.3729 70.132 21.3729C71.3366 21.3729 72.4134 21.0992 73.344 20.5515L72.4863 17.9783Z" fill="#FEFEFE"/>
<path d="M79.7848 21.1177L81.6646 15.7612L83.5626 21.1177H86.4279L89.859 11.0435H86.4645L84.7488 16.9109L82.7961 11.0435H80.533L78.6167 16.9109L76.8829 11.0435H73.4883L76.9195 21.1177H79.7848Z" fill="#FEFEFE"/>
<path d="M98.0197 11.9562C97.1984 11.1714 96.213 10.7881 95.0448 10.7881C93.6213 10.7881 92.4351 11.2809 91.5043 12.2847C90.5736 13.2702 90.1172 14.5294 90.1172 16.0442C90.1172 17.5589 90.5736 18.8183 91.5043 19.8403C92.4351 20.8624 93.6031 21.3733 95.0448 21.3733C96.213 21.3733 97.1984 20.9901 98.0197 20.2418V21.1178H101.049V11.0436H98.0197V11.9562ZM97.9832 16.0625C97.9832 16.7195 97.7642 17.2853 97.3079 17.7415C96.8517 18.1978 96.3042 18.4351 95.6471 18.4351C94.9901 18.4351 94.4426 18.1978 93.9864 17.7415C93.5484 17.2853 93.3293 16.7195 93.3293 16.0625C93.3293 15.4237 93.5484 14.8762 93.9864 14.4199C94.4244 13.9636 94.9718 13.7264 95.6471 13.7264C96.3042 13.7264 96.8517 13.9636 97.3079 14.4199C97.7642 14.8762 97.9832 15.4237 97.9832 16.0625Z" fill="#FEFEFE"/>
<path d="M106.31 21.1175V16.7739C106.31 14.8394 107.058 13.8721 108.536 13.8721C108.956 13.8721 109.394 13.9452 109.869 14.1094L110.124 11.0433C109.723 10.8607 109.303 10.7695 108.865 10.7695C107.715 10.7695 106.821 11.2805 106.182 12.2843V11.0433H103.098V21.1175H106.31Z" fill="#FEFEFE"/>
<path d="M121.068 15.8252C121.068 14.274 120.576 13.033 119.608 12.1386C118.641 11.2444 117.4 10.7881 115.903 10.7881C114.316 10.7881 113.02 11.2991 112.016 12.3028C111.012 13.3067 110.52 14.5659 110.52 16.0807C110.52 17.5589 110.994 18.8001 111.961 19.822C112.929 20.8259 114.297 21.3369 116.086 21.3369C117.765 21.3369 119.243 20.8806 120.539 19.9499L119.28 17.778C118.349 18.3986 117.345 18.7087 116.232 18.7087C114.954 18.7087 114.133 18.1795 113.768 17.121H120.959C121.032 16.6647 121.068 16.2449 121.068 15.8252ZM115.903 13.3614C116.98 13.3614 117.729 13.9455 118.002 14.9127H113.732C114.078 13.8724 114.79 13.3614 115.903 13.3614Z" fill="#FEFEFE"/>
<path d="M128.23 21.1184L130.566 13.2708L132.902 21.1184H136.169L140.513 7.63135H136.735L134.454 16.0631L131.771 7.63135H129.344L126.679 16.0631L124.379 7.63135H120.602L124.945 21.1184H128.23Z" fill="#38B6FF"/>
<path d="M145.456 21.3915C147.08 21.3915 148.412 20.8805 149.416 19.8585C150.438 18.8365 150.949 17.5772 150.949 16.0806C150.949 14.5841 150.438 13.3248 149.416 12.3028C148.412 11.2625 147.08 10.7515 145.456 10.7515C143.831 10.7515 142.517 11.2625 141.495 12.3028C140.491 13.3248 139.98 14.5841 139.98 16.0806C139.98 17.5772 140.491 18.8365 141.495 19.8585C142.517 20.8805 143.831 21.3915 145.456 21.3915ZM145.456 18.3802C144.817 18.3802 144.288 18.1613 143.85 17.7233C143.412 17.2669 143.193 16.7194 143.193 16.0625C143.193 15.4237 143.412 14.8943 143.85 14.4563C144.288 14.0001 144.817 13.781 145.456 13.781C146.094 13.781 146.624 14.0001 147.062 14.4381C147.518 14.8761 147.737 15.4237 147.737 16.0625C147.737 16.7194 147.518 17.2669 147.08 17.7233C146.642 18.1613 146.094 18.3802 145.456 18.3802Z" fill="#38B6FF"/>
<path d="M155.731 21.1175V16.7739C155.731 14.8394 156.48 13.8721 157.958 13.8721C158.378 13.8721 158.816 13.9452 159.29 14.1094L159.546 11.0433C159.144 10.8607 158.725 10.7695 158.287 10.7695C157.137 10.7695 156.243 11.2805 155.604 12.2843V11.0433H152.52V21.1175H155.731Z" fill="#38B6FF"/>
<path d="M163.872 7.19287L160.66 8.4841V21.1182H163.872V7.19287Z" fill="#38B6FF"/>
<path d="M173.088 11.8285C172.358 11.135 171.446 10.7883 170.369 10.7883C168.964 10.7883 167.796 11.2993 166.847 12.3031C165.916 13.3069 165.441 14.5662 165.441 16.0809C165.441 17.6141 165.916 18.8734 166.847 19.8772C167.777 20.881 168.964 21.3737 170.369 21.3737C171.482 21.3737 172.431 20.9905 173.18 20.2422V21.1182H176.319V7.19287L173.088 8.4841V11.8285ZM170.917 18.4354C170.26 18.4354 169.712 18.2163 169.274 17.7601C168.836 17.3038 168.617 16.738 168.617 16.0628C168.617 15.424 168.836 14.8765 169.274 14.4202C169.712 13.964 170.26 13.7266 170.917 13.7266C172.249 13.7266 173.216 14.7487 173.216 16.0628C173.216 17.395 172.249 18.4354 170.917 18.4354Z" fill="#38B6FF"/>
<path fill-rule="evenodd" clip-rule="evenodd" d="M3.47317 0H24.5267C26.4371 0 28 1.56293 28 3.47317V24.5269C28 26.4371 26.4371 28 24.5267 28H3.47317C1.56293 28 0 26.4371 0 24.5269V3.47317C0 1.56293 1.56293 0 3.47317 0Z" fill="#38B6FF"/>
<path fill-rule="evenodd" clip-rule="evenodd" d="M5.17969 15.7301C5.426 16.1453 6.42061 17.0064 6.77438 17.3666L13.0341 14.9599C12.905 15.6047 11.2955 18.6491 10.8185 19.607C10.5882 20.0695 10.2153 20.6855 10.0521 21.1766C10.1645 21.3963 11.4549 22.9418 11.6939 23.0615C12.1017 22.5657 17.7053 12.5841 17.7751 12.2906L16.532 10.9803C16.0752 11.0041 13.671 12.0078 13.0989 12.2249L9.6942 13.4937C9.81322 13.0164 11.0692 11.0357 11.4417 10.4027C11.7379 9.8994 13.1361 7.6733 13.2212 7.28685C12.8524 6.83716 11.429 5.10734 11.0734 4.93945L5.17969 15.7301Z" fill="#013870"/>
<path fill-rule="evenodd" clip-rule="evenodd" d="M14.043 21.7716C14.5627 21.6605 22.6422 18.3901 22.8247 18.2437C22.6969 17.9705 21.1164 16.1269 20.9278 15.9678C20.5133 16.016 17.0558 17.5521 16.4399 17.8135C15.8519 18.0632 15.6459 18.7715 15.135 19.6984C14.9396 20.053 14.1419 21.3963 14.043 21.7716Z" fill="#013870"/>
</svg>
