<svg width="29" height="28" viewBox="0 0 29 28" fill="none" xmlns="http://www.w3.org/2000/svg">
<g clip-path="url(#clip0_778_2025)">
<path d="M24.833 0H3.83301C1.90276 0 0.333008 1.56975 0.333008 3.5V24.5C0.333008 26.4303 1.90276 28 3.83301 28H24.833C26.7633 28 28.333 26.4303 28.333 24.5V3.5C28.333 1.56975 26.7633 0 24.833 0Z" fill="#F4F4F4"/>
<path d="M23.958 14.0001H19.583V10.5001C19.583 9.53406 20.367 9.62506 21.333 9.62506H23.083V5.25006H19.583C16.6833 5.25006 14.333 7.60031 14.333 10.5001V14.0001H10.833V18.3751H14.333V28.0001H19.583V18.3751H22.208L23.958 14.0001Z" fill="#013870"/>
</g>
<defs>
<clipPath id="clip0_778_2025">
<rect width="28" height="28" fill="white" transform="translate(0.333008)"/>
</clipPath>
</defs>
</svg>
