<svg width="28" height="28" viewBox="0 0 28 28" fill="none" xmlns="http://www.w3.org/2000/svg">
<g clip-path="url(#clip0_778_2018)">
<path d="M24.1818 0H3.81818C1.70946 0 0 1.70946 0 3.81818V24.1818C0 26.2905 1.70946 28 3.81818 28H24.1818C26.2905 28 28 26.2905 28 24.1818V3.81818C28 1.70946 26.2905 0 24.1818 0Z" fill="#F4F4F4"/>
<path d="M10.0862 7.63636C10.0862 8.10834 9.94625 8.56972 9.68403 8.96216C9.42181 9.35459 9.04911 9.66046 8.61306 9.84108C8.17701 10.0217 7.69719 10.069 7.23428 9.97687C6.77138 9.8848 6.34617 9.65752 6.01243 9.32378C5.67869 8.99004 5.45141 8.56483 5.35933 8.10192C5.26725 7.63901 5.31451 7.15919 5.49513 6.72314C5.67575 6.28709 5.98161 5.91439 6.37405 5.65217C6.76648 5.38996 7.22786 5.25 7.69984 5.25C8.33274 5.25 8.93973 5.50142 9.38726 5.94895C9.83479 6.39648 10.0862 7.00346 10.0862 7.63636ZM9.5453 11.6136V22.1566C9.54572 22.2344 9.53076 22.3115 9.50128 22.3834C9.47181 22.4554 9.4284 22.5209 9.37355 22.576C9.3187 22.6312 9.25349 22.6749 9.18168 22.7048C9.10986 22.7346 9.03285 22.75 8.95507 22.75H6.43984C6.36206 22.7502 6.28501 22.735 6.21311 22.7054C6.14122 22.6757 6.07589 22.6321 6.02089 22.5771C5.9659 22.5221 5.92231 22.4568 5.89265 22.3849C5.86298 22.313 5.84781 22.236 5.84802 22.1582V11.6136C5.84802 11.4567 5.91038 11.3061 6.02136 11.1952C6.13235 11.0842 6.28288 11.0218 6.43984 11.0218H8.95507C9.11175 11.0222 9.26188 11.0848 9.37252 11.1957C9.48316 11.3067 9.5453 11.457 9.5453 11.6136ZM22.6926 17.1023V22.2059C22.6928 22.2774 22.6788 22.3483 22.6516 22.4144C22.6243 22.4805 22.5842 22.5405 22.5337 22.5911C22.4831 22.6417 22.423 22.6817 22.3569 22.709C22.2908 22.7363 22.22 22.7502 22.1485 22.75H19.4439C19.3724 22.7502 19.3016 22.7363 19.2355 22.709C19.1694 22.6817 19.1093 22.6417 19.0587 22.5911C19.0082 22.5405 18.9681 22.4805 18.9408 22.4144C18.9136 22.3483 18.8996 22.2774 18.8998 22.2059V17.2598C18.8998 16.5216 19.1162 14.027 16.9701 14.027C15.3076 14.027 14.9687 15.7341 14.9019 16.5009V22.2059C14.9019 22.3488 14.8457 22.486 14.7453 22.5879C14.645 22.6897 14.5087 22.7479 14.3658 22.75H11.7535C11.6821 22.75 11.6114 22.7359 11.5455 22.7086C11.4796 22.6812 11.4197 22.6411 11.3693 22.5905C11.3189 22.54 11.279 22.48 11.2518 22.414C11.2246 22.348 11.2108 22.2773 11.211 22.2059V11.5675C11.2108 11.4961 11.2246 11.4254 11.2518 11.3594C11.279 11.2934 11.3189 11.2334 11.3693 11.1829C11.4197 11.1323 11.4796 11.0922 11.5455 11.0649C11.6114 11.0375 11.6821 11.0234 11.7535 11.0234H14.3658C14.5101 11.0234 14.6484 11.0807 14.7505 11.1828C14.8525 11.2848 14.9098 11.4232 14.9098 11.5675V12.487C15.5271 11.5611 16.4419 10.8468 18.3939 10.8468C22.718 10.8468 22.6926 14.8845 22.6926 17.1023Z" fill="#013870"/>
</g>
<defs>
<clipPath id="clip0_778_2018">
<rect width="28" height="28" fill="white"/>
</clipPath>
</defs>
</svg>
