<svg width="29" height="28" viewBox="0 0 29 28" fill="none" xmlns="http://www.w3.org/2000/svg">
<g clip-path="url(#clip0_778_2030)">
<rect x="0.666992" width="28" height="28" rx="3.5" fill="#013870"/>
<path d="M15.604 13.522L21.905 22.5347H19.3191L14.1773 15.1804V15.1799L13.4224 14.1003L7.41602 5.50861H10.002L14.8491 12.4424L15.604 13.522Z" fill="#F4F4F4"/>
<path d="M25.6415 0H3.69245C2.02158 0 0.666992 1.35459 0.666992 3.02546V24.9745C0.666992 26.6454 2.02158 28 3.69245 28H25.6415C27.3124 28 28.667 26.6454 28.667 24.9745V3.02546C28.667 1.35459 27.3124 0 25.6415 0ZM18.5263 23.7445L13.3231 16.172L6.80874 23.7445H5.12509L12.5755 15.0844L5.12509 4.24108H10.8077L15.7347 11.4118L21.9034 4.24108H23.5871L16.4825 12.4996H16.4821L24.2089 23.7445H18.5263Z" fill="#F4F4F4"/>
</g>
<defs>
<clipPath id="clip0_778_2030">
<rect x="0.666992" width="28" height="28" rx="3.5" fill="white"/>
</clipPath>
</defs>
</svg>
