<svg xmlns="http://www.w3.org/2000/svg" width="20" height="18" fill="none"><path d="M19.984 12.756v4.541c0 .639 0 .639-.729.639h-2.803c-.673 0-.682-.009-.682-.605v-5.676c0-.446-.009-.9-.14-1.337-.215-.748-.729-1.236-1.457-1.303-.944-.084-1.85-.034-2.42.816-.346.521-.458 1.102-.467 1.69l-.009 5.802c0 .597-.009.605-.682.605-1 0-1.99-.008-2.99.009-.392.008-.551-.101-.551-.479V6.365c0-.345.131-.479.514-.471h3.036c.346 0 .523.118.505.446s0 .664 0 1.009c.215-.042.243-.185.327-.277 1.626-1.825 5.484-1.984 7.259-.277.757.723 1.037 1.648 1.196 2.598.177 1.127.084 2.245.093 3.363zM4.559 17.414c0 .395-.14.547-.589.538-1.046-.025-2.083-.017-3.13 0-.383.008-.514-.126-.514-.462V6.399c0-.345.149-.479.523-.479h3.223c.402 0 .486.185.486.505v5.541 5.449zm.29-15.236c0 1.211-1.102 2.211-2.42 2.203S-.018 3.347 0 2.178C.019.959 1.084 0 2.439 0c1.364-.008 2.41.942 2.41 2.178z" fill="#FFFFFF"></path></svg>