<svg width="74" height="74" viewBox="0 0 74 74" fill="none" xmlns="http://www.w3.org/2000/svg">
<g filter="url(#filter0_d_801_8042)">
<circle cx="37" cy="36" r="26" fill="#38B6FF"/>
<g clip-path="url(#clip0_801_8042)">
<path d="M47.6407 26.249H29.9196C28.9409 26.249 28.1475 27.0424 28.1475 28.0211C28.1475 28.9998 28.9409 29.7932 29.9196 29.7932H47.6407C48.6194 29.7932 49.4128 28.9998 49.4128 28.0211C49.4128 27.0424 48.6194 26.249 47.6407 26.249ZM26.3754 28.0211C26.3734 27.5519 26.1854 27.1026 25.8527 26.7718C25.1615 26.0847 24.0452 26.0847 23.354 26.7718C23.0212 27.1026 22.8332 27.5519 22.8312 28.0211C22.818 28.1359 22.818 28.2519 22.8312 28.3667C22.8513 28.4822 22.8839 28.5951 22.9287 28.7034C22.9763 28.8083 23.0326 28.9091 23.097 29.0046C23.1607 29.104 23.2349 29.1961 23.3185 29.2793C23.3992 29.3596 23.4883 29.4309 23.5844 29.492C23.6777 29.5599 23.7788 29.6165 23.8856 29.6603C24.0031 29.7213 24.1283 29.766 24.2578 29.7932C24.3726 29.8061 24.4885 29.8061 24.6033 29.7932C25.0713 29.7936 25.5204 29.6089 25.8527 29.2793C25.9363 29.1961 26.0105 29.104 26.0742 29.0046C26.1386 28.9091 26.1949 28.8083 26.2425 28.7034C26.2991 28.5964 26.3436 28.4835 26.3754 28.3667C26.3887 28.2519 26.3887 28.1359 26.3754 28.0211ZM26.3754 35.9956C26.3886 35.8808 26.3886 35.7648 26.3754 35.65C26.3448 35.5357 26.3002 35.4256 26.2425 35.3222C26.1969 35.2135 26.1405 35.1096 26.0742 35.0121C26.0127 34.9138 25.9382 34.8244 25.8527 34.7463C25.1615 34.0592 24.0452 34.0592 23.354 34.7463C23.0212 35.0771 22.8332 35.5264 22.8312 35.9956C22.8347 36.2291 22.8797 36.4601 22.9641 36.6779C23.0085 36.7827 23.0619 36.8835 23.1236 36.9791C23.191 37.0754 23.2682 37.1645 23.354 37.2449C23.4323 37.3303 23.5217 37.4048 23.6198 37.4664C23.7131 37.5345 23.8142 37.591 23.9211 37.6348C24.0291 37.6803 24.1421 37.713 24.2578 37.7323C24.3711 37.7577 24.4871 37.7696 24.6033 37.7677C24.7181 37.7809 24.8341 37.7809 24.9489 37.7677C25.0616 37.7484 25.1717 37.7156 25.2767 37.6702C25.3864 37.6267 25.4905 37.5702 25.5868 37.5019C25.685 37.4403 25.7744 37.3658 25.8527 37.2804C25.9381 37.2021 26.0126 37.1127 26.0742 37.0146C26.1423 36.9213 26.1988 36.8202 26.2425 36.7133C26.303 36.5957 26.3477 36.4705 26.3754 36.3412C26.389 36.2264 26.389 36.1104 26.3754 35.9956ZM26.3754 43.9701C26.3885 43.8553 26.3885 43.7393 26.3754 43.6245C26.3448 43.5073 26.3002 43.3943 26.2425 43.2878C26.1949 43.1828 26.1386 43.0821 26.0742 42.9865C26.0126 42.8884 25.9381 42.799 25.8527 42.7207C25.1615 42.0337 24.0452 42.0337 23.354 42.7207C23.2686 42.799 23.1941 42.8884 23.1325 42.9865C23.068 43.0821 23.0117 43.1828 22.9641 43.2878C22.9182 43.3957 22.8854 43.5087 22.8667 43.6245C22.8417 43.738 22.8298 43.8539 22.8312 43.9701C22.8332 44.4393 23.0212 44.8886 23.354 45.2194C23.4323 45.3048 23.5217 45.3793 23.6198 45.4409C23.7131 45.5089 23.8142 45.5654 23.9211 45.6093C24.0291 45.6547 24.1421 45.6874 24.2578 45.7067C24.3711 45.7321 24.4871 45.7441 24.6033 45.7422C24.7181 45.7554 24.8341 45.7554 24.9489 45.7422C25.0616 45.7228 25.1717 45.6901 25.2767 45.6447C25.3864 45.6012 25.4905 45.5446 25.5868 45.4764C25.685 45.4148 25.7744 45.3402 25.8527 45.2548C25.9381 45.1766 26.0126 45.0871 26.0742 44.989C26.1423 44.8958 26.1989 44.7947 26.2425 44.6878C26.303 44.5701 26.3477 44.445 26.3754 44.3156C26.389 44.2008 26.389 44.0849 26.3754 43.9701ZM49.4128 34.2235H29.9196C28.9409 34.2235 28.1475 35.0169 28.1475 35.9956C28.1475 36.9743 28.9409 37.7677 29.9196 37.7677H49.4128C50.3915 37.7677 51.1849 36.9743 51.1849 35.9956C51.1849 35.0169 50.3915 34.2235 49.4128 34.2235ZM41.4383 42.198H29.9196C28.9409 42.198 28.1475 42.9914 28.1475 43.9701C28.1475 44.9488 28.9409 45.7422 29.9196 45.7422H41.4383C42.417 45.7422 43.2104 44.9488 43.2104 43.9701C43.2104 42.9914 42.417 42.198 41.4383 42.198Z" fill="white"/>
</g>
</g>
<defs>
<filter id="filter0_d_801_8042" x="0" y="0" width="74" height="74" filterUnits="userSpaceOnUse" color-interpolation-filters="sRGB">
<feFlood flood-opacity="0" result="BackgroundImageFix"/>
<feColorMatrix in="SourceAlpha" type="matrix" values="0 0 0 0 0 0 0 0 0 0 0 0 0 0 0 0 0 0 127 0" result="hardAlpha"/>
<feOffset dy="1"/>
<feGaussianBlur stdDeviation="5.5"/>
<feComposite in2="hardAlpha" operator="out"/>
<feColorMatrix type="matrix" values="0 0 0 0 0 0 0 0 0 0 0 0 0 0 0 0 0 0 0.1 0"/>
<feBlend mode="normal" in2="BackgroundImageFix" result="effect1_dropShadow_801_8042"/>
<feBlend mode="normal" in="SourceGraphic" in2="effect1_dropShadow_801_8042" result="shape"/>
</filter>
<clipPath id="clip0_801_8042">
<rect width="28.3636" height="28.3636" fill="white" transform="translate(22.8213 21.8184)"/>
</clipPath>
</defs>
</svg>
