<svg width="52" height="52" viewBox="0 0 52 52" fill="none" xmlns="http://www.w3.org/2000/svg">
<circle cx="26" cy="26" r="26" fill="#38B6FF"/>
<path d="M35.1998 22.4541H30.0069L31.0268 19.3908C31.343 18.4344 31.3371 17.4008 31.0102 16.448C30.6832 15.4953 30.0531 14.6759 29.2163 14.1152C28.59 13.7034 27.8282 13.5508 27.0916 13.6897C26.3551 13.8286 25.7012 14.2481 25.2678 14.8597L19.7216 22.7779C19.5033 22.57 19.2134 22.4541 18.912 22.4541H14.1847C13.8713 22.4541 13.5707 22.5786 13.3491 22.8002C13.1274 23.0219 13.0029 23.3225 13.0029 23.6359V37.8177C13.0029 38.1312 13.1274 38.4318 13.3491 38.6534C13.5707 38.875 13.8713 38.9995 14.1847 38.9995H18.912C19.2255 38.9995 19.5261 38.875 19.7477 38.6534C19.9693 38.4318 20.0938 38.1312 20.0938 37.8177V37.6617L21.8016 38.801C21.996 38.9301 22.2241 38.9992 22.4575 38.9995H33.0938C33.3135 38.9996 33.5288 38.9386 33.7156 38.8231C33.9024 38.7077 34.0534 38.5425 34.1516 38.346L38.4747 29.6986C38.8209 29.0032 39.0017 28.2371 39.0029 27.4603V26.2572C39.0017 25.2489 38.6006 24.2823 37.8876 23.5694C37.1747 22.8564 36.2081 22.4553 35.1998 22.4541ZM17.7302 36.6359H15.3666V24.8177H17.7302V36.6359ZM36.6393 27.4603C36.6385 27.8704 36.5431 28.2749 36.3604 28.6421L32.3635 36.6359H22.812L20.0938 34.8218V26.3718L27.2048 16.2141C27.2809 16.1044 27.397 16.0291 27.5281 16.0043C27.6593 15.9796 27.7949 16.0074 27.9057 16.0817C28.3122 16.3539 28.6184 16.7518 28.7772 17.2146C28.936 17.6774 28.9387 18.1794 28.7849 18.6439L27.2486 23.2625C27.1895 23.4398 27.1733 23.6287 27.2014 23.8135C27.2295 23.9984 27.3011 24.1739 27.4102 24.3257C27.5193 24.4775 27.6629 24.6013 27.8292 24.6868C27.9954 24.7723 28.1796 24.8172 28.3666 24.8177H35.1998C35.5815 24.818 35.9475 24.9698 36.2173 25.2397C36.4872 25.5096 36.639 25.8755 36.6393 26.2572V27.4603Z" fill="white"/>
</svg>
