<svg width="52" height="52" viewBox="0 0 52 52" fill="none" xmlns="http://www.w3.org/2000/svg">
<circle cx="26" cy="26" r="26" fill="#38B6FF"/>
<g clip-path="url(#clip0_801_8061)">
<path d="M37.2043 14.8018C33.2266 10.8241 26.7884 10.8237 22.8103 14.8018C19.0444 18.5677 18.8526 24.5234 22.1857 28.5119L20.8475 29.8501L18.8847 27.8873C18.5234 27.5259 17.9375 27.5259 17.5761 27.8873C17.2148 28.2486 17.2148 28.8344 17.5761 29.1958L18.2304 29.8501L12.0951 35.9853C11.7341 36.3463 11.7338 36.9325 12.0951 37.2938L14.7123 39.911C15.0736 40.2723 15.6595 40.2724 16.0208 39.911L22.156 33.7757L22.8103 34.43C23.1716 34.7914 23.7575 34.7915 24.1189 34.43C24.4802 34.0687 24.4802 33.4829 24.1189 33.1215L22.156 31.1586L23.4942 29.8205C27.478 33.1496 33.4336 32.9666 37.2043 29.1959C41.1727 25.2274 41.1727 18.7702 37.2043 14.8018ZM15.3665 37.9482L14.0579 36.6396L19.5389 31.1587L20.8475 32.4672L15.3665 37.9482ZM35.8957 27.8873C32.6412 31.1418 27.3736 31.1421 24.1188 27.8873C20.8641 24.6326 20.864 19.3652 24.1188 16.1103C27.3733 12.8558 32.6409 12.8555 35.8957 16.1103C39.1426 19.3573 39.1426 24.6404 35.8957 27.8873Z" fill="white"/>
<g clip-path="url(#clip1_801_8061)">
<path d="M34.8033 18.2793H31.3447C31.1565 18.2793 31.0039 18.4318 31.0039 18.6201V19.3085C31.0039 19.4966 31.1565 19.6493 31.3447 19.6493H32.8056L29.8163 22.6384L28.5489 21.3711C28.2813 21.1036 27.8476 21.1036 27.58 21.3711L24.386 24.5655C24.2528 24.6984 24.2528 24.9143 24.386 25.0473L24.8727 25.5342C25.0057 25.6672 25.2216 25.6672 25.3545 25.5342L28.0646 22.8242L29.3317 24.0915C29.5993 24.3592 30.033 24.3593 30.3006 24.0915L33.7741 20.618V22.0789C33.7741 22.2671 33.9266 22.4197 34.1149 22.4197H34.8033C34.9916 22.4197 35.1441 22.2671 35.1441 22.0789V18.6201C35.1441 18.4318 34.9916 18.2793 34.8033 18.2793Z" fill="white"/>
</g>
</g>
<defs>
<clipPath id="clip0_801_8061">
<rect width="28.3636" height="28.3636" fill="white" transform="translate(11.8213 11.8184)"/>
</clipPath>
<clipPath id="clip1_801_8061">
<rect width="10.858" height="10.858" fill="white" transform="translate(24.2861 16.5273)"/>
</clipPath>
</defs>
</svg>
