<svg width="52" height="52" viewBox="0 0 52 52" fill="none" xmlns="http://www.w3.org/2000/svg">
<circle cx="26" cy="26" r="26" fill="#38B6FF"/>
<g clip-path="url(#clip0_801_8054)">
<path d="M40.0797 20.7224C40.0237 20.2654 39.6063 19.9408 39.149 19.9994C38.0817 20.1366 37.2541 20.6656 36.7245 21.1155C36.6906 20.8433 36.6465 20.5725 36.5924 20.3036C37.3889 19.9077 38.0024 19.2669 38.3253 18.4694C38.7866 17.3579 38.64 15.9868 37.9425 14.89C37.5541 14.2784 37.1358 13.7156 36.6993 13.2171C36.397 12.8721 35.8725 12.8372 35.5272 13.139C34.7759 13.7959 34.27 14.7483 34.0644 15.8929C34.0638 15.8959 34.0633 15.899 34.0629 15.902C33.9021 16.8575 33.9664 17.8643 34.3672 18.7507C36.1752 22.741 34.8089 27.691 30.9115 30.1568C30.6758 30.3053 30.4824 30.5121 30.3502 30.7573H26.834V27.3624L29.7587 28.881C30.3655 29.196 31.0734 28.6817 30.9614 28.0073L30.2677 23.8333L33.2818 20.8641C33.7685 20.3847 33.4989 19.5523 32.8224 19.4504L28.6586 18.8231L26.7602 14.6266C26.4664 13.977 25.5403 13.9761 25.246 14.6266L23.3476 18.8231L19.1837 19.4504C18.5083 19.5522 18.237 20.384 18.7244 20.8641L21.7385 23.8333L21.0448 28.0073C20.9328 28.6813 21.6403 29.1961 22.2474 28.881L25.1721 27.3624V30.7573H21.6385C21.4288 30.395 21.0969 30.1661 20.8089 29.9673C17.4095 27.6225 15.8098 22.9554 17.658 18.7413C18.0502 17.8462 18.1223 16.8769 17.9582 15.902L17.9567 15.8929C17.7511 14.7482 17.2453 13.7959 16.4939 13.139C16.1487 12.8371 15.6241 12.8721 15.3219 13.2171C14.8852 13.7157 14.4669 14.2785 14.0789 14.8895C13.3811 15.9867 13.2344 17.3579 13.6958 18.4693C14.0187 19.2668 14.6322 19.9076 15.4287 20.3035C15.3744 20.5731 15.3302 20.8446 15.2963 21.1174C14.5775 20.5102 13.7119 20.1092 12.8572 19.9994C12.4005 19.9406 11.9825 20.2651 11.9264 20.7225C11.8336 21.4802 11.8027 22.1612 11.8319 22.8041C11.8683 24.0825 12.5355 25.2977 13.5756 25.9801C14.1501 26.3742 14.8292 26.5756 15.5387 26.5756C15.7008 26.5756 15.8645 26.5649 16.0288 26.5438C16.1322 26.7951 16.2448 27.0425 16.3664 27.2854C15.6234 27.1927 14.6872 27.2264 13.7796 27.6754C13.6803 27.7246 13.5918 27.7931 13.5193 27.8769C13.4469 27.9608 13.3919 28.0583 13.3577 28.1636C13.3235 28.269 13.3107 28.3802 13.3201 28.4906C13.3295 28.601 13.3609 28.7084 13.4124 28.8065C13.7005 29.3551 14.0436 29.9887 14.4733 30.5733C15.1752 31.5892 16.3357 32.2949 17.6943 32.2949C18.5208 32.2949 19.3184 31.981 19.9751 31.4117C20.0632 31.4735 20.1473 31.5349 20.1861 31.5737C20.1863 31.5778 20.1864 31.5827 20.1864 31.5883V37.405H19.3554C18.8965 37.405 18.5245 37.7771 18.5245 38.236C18.5245 38.6949 18.8965 39.0669 19.3554 39.0669H32.6508C33.1097 39.0669 33.4818 38.6949 33.4818 38.236C33.4818 37.7771 33.1097 37.405 32.6508 37.405H31.8199V31.5487C31.8945 31.5008 31.9685 31.4521 32.042 31.4025C32.7055 31.9841 33.5156 32.2989 34.3849 32.3001L34.4117 32.3002C35.609 32.3002 36.8497 31.6725 37.7001 30.3771C38.03 29.8746 38.3712 29.355 38.6404 28.7703C38.8284 28.362 38.6575 27.8781 38.2548 27.6784C37.4967 27.3025 36.6465 27.1765 35.6691 27.2953C35.7919 27.0498 35.9052 26.7996 36.0088 26.5454C36.1654 26.5649 36.3213 26.5747 36.4759 26.5747C37.1835 26.5747 37.8637 26.3702 38.4632 25.9673C39.4882 25.2746 40.143 24.0613 40.1741 22.799C40.2038 22.1614 40.1729 21.482 40.0797 20.7224ZM23.2121 22.952L21.0744 20.8463L24.0422 20.3991C24.1793 20.3785 24.3091 20.3238 24.4198 20.2401C24.5304 20.1564 24.6183 20.0463 24.6755 19.92L26.0031 16.9851L27.3307 19.9199C27.3878 20.0463 27.4758 20.1564 27.5864 20.2401C27.697 20.3238 27.8268 20.3784 27.964 20.3991L30.9317 20.8462L28.7941 22.952C28.6992 23.0455 28.6281 23.1605 28.5869 23.2872C28.5458 23.4139 28.5357 23.5487 28.5575 23.6802L29.0494 26.6401L26.3977 25.2632C26.1431 25.1397 25.8795 25.1224 25.6202 25.2571L22.9567 26.64L23.4486 23.6801C23.4929 23.4134 23.4047 23.1418 23.2121 22.952ZM35.7009 16.1822C35.7588 15.8615 35.8674 15.4664 36.0704 15.0912C36.2342 15.3162 36.3908 15.5464 36.5399 15.7814C36.9518 16.429 37.0473 17.2157 36.7894 17.8345L36.7858 17.8434C36.6527 18.1734 36.4262 18.4504 36.1249 18.6586C35.8838 18.0091 35.4885 17.4529 35.7009 16.1822ZM15.8962 18.6586C15.595 18.4503 15.3685 18.1734 15.2353 17.8434C15.2342 17.8404 15.2329 17.8374 15.2317 17.8345C14.9737 17.2157 15.0694 16.429 15.4815 15.7809C15.6305 15.546 15.7869 15.316 15.9507 15.0912C16.1537 15.4664 16.2622 15.8615 16.3201 16.1822C16.5239 17.4006 16.1775 17.9007 15.8962 18.6586ZM14.511 24.6065C14.5048 24.6022 14.4986 24.598 14.4923 24.594C13.9046 24.2109 13.5123 23.4879 13.493 22.7519C13.4929 22.7464 13.4927 22.7408 13.4924 22.7352C13.4802 22.4707 13.4801 22.1967 13.4924 21.9094C13.8499 22.0823 14.1926 22.328 14.4806 22.6252C14.9325 23.0946 15.2244 23.606 15.3507 24.1465C15.3923 24.4045 15.4433 24.6609 15.5035 24.9151C15.1387 24.9096 14.7997 24.806 14.511 24.6065ZM15.8188 29.5978C15.6612 29.3842 15.5139 29.1558 15.3762 28.925C15.736 28.8867 16.1257 28.9101 16.5252 28.9968C17.1879 29.1526 17.7165 29.4225 18.0988 29.7993C18.2712 29.9871 18.4503 30.1687 18.6356 30.3438C17.8734 30.8306 16.6866 30.7761 15.8188 29.5978ZM21.8482 37.405V32.4192H30.1579V37.405H21.8482ZM36.6574 28.9292C36.5094 29.1653 36.3496 29.4051 36.1975 29.6379C35.5188 30.5591 34.346 30.96 33.3846 30.3404C33.578 30.1609 33.7648 29.9744 33.9445 29.7812C34.6778 29.1227 35.7302 28.8388 36.6574 28.9292ZM38.5135 22.7301C38.5131 22.7374 38.5128 22.7446 38.5127 22.7518C38.497 23.4769 38.1122 24.1985 37.5343 24.5891C37.2241 24.7976 36.8871 24.9062 36.5267 24.9147C36.6953 24.1872 36.6707 23.5147 37.5384 22.6272C37.8301 22.3263 38.1651 22.0823 38.514 21.911C38.5262 22.1968 38.526 22.4686 38.5135 22.7301Z" fill="white"/>
<path d="M27.6656 34.0811H24.3417C23.8828 34.0811 23.5107 34.4531 23.5107 34.912C23.5107 35.3709 23.8828 35.743 24.3417 35.743H27.6656C28.1245 35.743 28.4965 35.3709 28.4965 34.912C28.4965 34.4531 28.1245 34.0811 27.6656 34.0811Z" fill="white"/>
</g>
<defs>
<clipPath id="clip0_801_8054">
<rect width="28.3636" height="28.3636" fill="white" transform="translate(11.8213 11.8184)"/>
</clipPath>
</defs>
</svg>
