<svg width="52" height="52" viewBox="0 0 52 52" fill="none" xmlns="http://www.w3.org/2000/svg">
<circle cx="26" cy="26" r="26" fill="#38B6FF"/>
<g clip-path="url(#clip0_801_8071)">
<path d="M32.761 13.8353C32.6838 13.7575 32.5919 13.6957 32.4907 13.6536C32.3895 13.6115 32.281 13.5898 32.1713 13.5898C32.0617 13.5899 31.9532 13.6116 31.852 13.6538C31.7508 13.6959 31.6589 13.7577 31.5817 13.8355L29.1268 16.3093C28.9644 16.4729 28.7486 16.5632 28.5197 16.5632H23.4416C23.2125 16.5632 22.9969 16.4729 22.8329 16.308L20.4212 13.8895C20.344 13.8121 20.2523 13.7507 20.1514 13.7087C20.0504 13.6668 19.9421 13.6452 19.8328 13.6452H19.8319C19.7224 13.6454 19.6141 13.6672 19.513 13.7093C19.412 13.7515 19.3202 13.8132 19.2431 13.8909L12.0615 21.1254C11.7393 21.4501 11.74 21.974 12.0631 22.2979L14.1228 24.3614C14.5129 24.7546 14.7278 25.2777 14.7278 25.8345C14.7278 26.5549 14.9299 27.2439 15.3056 27.8374C14.488 28.8316 14.5408 30.3121 15.4648 31.2429C15.9121 31.6937 16.4979 31.9542 17.1261 31.9849C17.1549 32.5925 17.399 33.1915 17.8586 33.6544C18.3059 34.1052 18.8917 34.3657 19.5201 34.3965C19.5487 35.0041 19.793 35.6031 20.2524 36.066C20.9758 36.7948 22.0139 36.9785 22.8905 36.6637C23.0145 37.0224 23.2179 37.3486 23.4856 37.6177C24.4722 38.6119 26.072 38.6121 27.0587 37.6177L27.4095 37.2646C27.6227 37.0498 27.7956 36.7985 27.9198 36.5226C28.9012 37.3897 30.4138 37.3704 31.37 36.407C31.8296 35.9441 32.0738 35.3451 32.1024 34.7375C32.7305 34.707 33.3165 34.4462 33.7638 33.9955C34.2234 33.5326 34.4675 32.9336 34.4963 32.326C35.1243 32.2955 35.7103 32.0347 36.1576 31.5842C37.0764 30.6586 37.1343 29.1891 36.331 28.195C36.9163 27.3703 37.2333 26.3858 37.2333 25.3521C37.2333 25.11 37.3305 24.8733 37.4999 24.7025L39.9426 22.2408C40.2642 21.9168 40.2642 21.394 39.9426 21.07L32.761 13.8353ZM16.6444 28.8314L17.8413 27.6256C17.9206 27.5451 18.0151 27.4812 18.1194 27.4376C18.2236 27.394 18.3354 27.3715 18.4484 27.3715C18.5614 27.3715 18.6732 27.394 18.7775 27.4376C18.8817 27.4812 18.9762 27.5451 19.0555 27.6256C19.3952 27.9677 19.3952 28.5243 19.0555 28.8662L17.8586 30.0722C17.7793 30.1527 17.6848 30.2166 17.5806 30.2602C17.4763 30.3038 17.3645 30.3262 17.2515 30.3262C17.1385 30.3262 17.0267 30.3038 16.9225 30.2602C16.8182 30.2166 16.7237 30.1527 16.6444 30.0722C16.3049 29.7301 16.3049 29.1735 16.6444 28.8313V28.8314ZM19.0382 31.2429L21.4319 28.8314C21.5113 28.7509 21.6058 28.687 21.71 28.6433C21.8143 28.5997 21.9262 28.5772 22.0392 28.5772C22.1522 28.5772 22.2641 28.5997 22.3683 28.6433C22.4726 28.687 22.5671 28.7509 22.6464 28.8314C22.9859 29.1735 22.9859 29.7301 22.6464 30.0722C21.7931 30.9317 21.7477 30.9774 20.2524 32.4837C20.1731 32.5642 20.0785 32.628 19.9743 32.6716C19.8701 32.7152 19.7582 32.7376 19.6453 32.7376C19.5323 32.7376 19.4204 32.7151 19.3162 32.6715C19.212 32.6279 19.1175 32.564 19.0382 32.4835C18.6987 32.1416 18.6987 31.585 19.0382 31.2429ZM21.4319 34.895C21.0925 34.5531 21.0925 33.9965 21.4319 33.6544L22.6289 32.4487C22.7082 32.3682 22.8027 32.3043 22.907 32.2607C23.0112 32.2171 23.1231 32.1947 23.2361 32.1947C23.3491 32.1947 23.4609 32.2171 23.5652 32.2607C23.6694 32.3043 23.7639 32.3682 23.8433 32.4487C24.1568 32.7646 24.1802 33.263 23.9145 33.607C23.8413 33.6746 23.9502 33.5659 22.6464 34.895C22.5671 34.9756 22.4726 35.0395 22.3683 35.0832C22.2641 35.1268 22.1522 35.1493 22.0392 35.1493C21.9262 35.1493 21.8143 35.1268 21.7101 35.0832C21.6058 35.0395 21.5112 34.9756 21.4319 34.895ZM26.2302 36.0937L25.8794 36.4468C25.8001 36.5273 25.7056 36.5913 25.6013 36.6349C25.4971 36.6785 25.3853 36.701 25.2723 36.701C25.1593 36.701 25.0474 36.6785 24.9432 36.6349C24.839 36.5913 24.7445 36.5273 24.6652 36.4468C24.3557 36.1352 24.3291 35.646 24.5836 35.3027C25.0398 34.8416 25.0175 34.8688 25.0969 34.7819C25.4362 34.5151 25.9207 34.5414 26.2302 34.853C26.5697 35.1952 26.5695 35.7518 26.2302 36.0937ZM34.9782 30.4132C34.8989 30.4937 34.8044 30.5575 34.7001 30.6011C34.5959 30.6447 34.484 30.6672 34.371 30.6672C34.258 30.6672 34.1462 30.6447 34.0419 30.6011C33.9377 30.5575 33.8431 30.4937 33.7638 30.4132L32.2164 28.8543C31.8931 28.5286 31.3668 28.5267 31.0411 28.85C30.7154 29.1733 30.7135 29.6993 31.0368 30.025L32.5844 31.5839C32.924 31.9261 32.924 32.4826 32.5844 32.8245C32.5051 32.9051 32.4106 32.969 32.3064 33.0126C32.2021 33.0562 32.0902 33.0787 31.9772 33.0787C31.8642 33.0787 31.7523 33.0562 31.6481 33.0126C31.5439 32.969 31.4493 32.9051 31.37 32.8245L29.8226 31.2657C29.4991 30.9399 28.973 30.938 28.6473 31.2613C28.3216 31.5846 28.3197 32.1109 28.643 32.4365L30.1904 33.9954C30.5302 34.3376 30.5302 34.8942 30.1904 35.2361C30.1111 35.3166 30.0166 35.3805 29.9124 35.4241C29.8081 35.4677 29.6962 35.4902 29.5832 35.4902C29.4702 35.4902 29.3584 35.4677 29.2541 35.4241C29.1499 35.3805 29.0554 35.3166 28.9761 35.2361C27.347 33.6083 27.4251 33.644 27.2611 33.5449C26.8378 33.1805 26.3135 32.9694 25.7547 32.9408C25.7246 32.3355 25.4805 31.7391 25.0229 31.2777C24.788 31.0414 24.515 30.8575 24.2179 30.7315C24.7814 29.7614 24.6509 28.4916 23.8258 27.6606C22.9801 26.8087 21.715 26.7055 20.7717 27.2579C20.6464 26.9581 20.4641 26.6854 20.2351 26.4549C19.2483 25.4607 17.6487 25.4607 16.6617 26.4549L16.5293 26.5884C16.4368 26.3478 16.3894 26.0922 16.3897 25.8345C16.3897 24.836 16.0035 23.8973 15.3006 23.189L13.8237 21.7093L19.8341 15.6542L21.6549 17.48C22.0617 17.8898 22.5834 18.1419 23.1472 18.2073L19.4338 22.6631C19.1401 23.0158 19.1877 23.5397 19.5402 23.8334C20.3926 24.5438 21.4707 24.8798 22.5758 24.7795C23.6808 24.6791 24.6807 24.1543 25.392 23.3006C25.6896 22.9436 26.1902 22.836 26.6097 23.0386C27.466 23.4523 28.4071 23.6034 29.3329 23.4852L34.9782 29.1723C35.3178 29.5145 35.3178 30.0711 34.9782 30.4132ZM36.3205 23.5316C35.8373 24.0182 35.5714 24.6648 35.5714 25.3521C35.5714 25.9321 35.421 26.4882 35.1401 26.9764L31.0985 22.9051C31.9247 22.4454 32.6022 21.7545 33.0517 20.898C33.2648 20.4916 33.1082 19.9894 32.7018 19.7762C32.2954 19.5628 31.7931 19.7195 31.58 20.1259C31.129 20.9854 30.3549 21.5591 29.4878 21.7716C29.4497 21.7775 29.4119 21.7857 29.3748 21.7969C28.7085 21.9348 27.9942 21.8618 27.3327 21.5422C26.7957 21.2818 26.1869 21.2088 25.6036 21.3349C25.0202 21.461 24.496 21.779 24.1145 22.2379C23.6881 22.7492 23.0883 23.0641 22.4255 23.1245C22.0487 23.1587 21.6774 23.1083 21.3329 22.9804L25.1798 18.3636C25.4812 18.2716 25.7937 18.2179 26.1088 18.2179H28.5197C29.1948 18.2179 29.8293 17.9604 30.3064 17.48L32.1716 15.6004L38.1822 21.6554L36.3205 23.5316Z" fill="white"/>
</g>
<defs>
<clipPath id="clip0_801_8071">
<rect width="28.3636" height="28.3636" fill="white" transform="translate(11.8203 11.8174)"/>
</clipPath>
</defs>
</svg>
