<svg xmlns="http://www.w3.org/2000/svg" width="32" height="32" viewBox="0 0 32 32" fill="none">
<g id="Group">
<g id="Clip path group">
<mask id="mask0_198_88" style="mask-type:luminance" maskUnits="userSpaceOnUse" x="3" y="3" width="30" height="29">
<g id="a">
<path id="Vector" d="M31.3547 22.0454C29.0189 29.5189 21.0615 33.6856 13.5811 31.352C6.10072 29.0185 1.93022 21.0683 4.26587 13.5949C6.60153 6.12138 14.5591 1.95473 22.0395 4.28823C29.5199 6.62173 33.6904 14.572 31.3547 22.0454Z" fill="white"/>
</g>
</mask>
<g mask="url(#mask0_198_88)">
<g id="Group_2">
<path id="path70127" d="M31.3547 22.0454C29.0189 29.5189 21.0615 33.6856 13.5811 31.352C6.10072 29.0185 1.93022 21.0683 4.26587 13.5949C6.60153 6.12138 14.5591 1.95473 22.0395 4.28823C29.5199 6.62173 33.6904 14.572 31.3547 22.0454Z" fill="url(#paint0_linear_198_88)"/>
<path id="Vector 2" d="M10.9657 20.3677C10.0659 23.1198 16.498 29 21.7399 24.0372" stroke="black" stroke-width="0.8" stroke-linecap="round"/>
</g>
</g>
</g>
<path id="Vector_2" d="M13.2685 18.4879C15.8265 18.4879 17.9002 16.4161 17.9002 13.8604C17.9002 11.3047 15.8265 9.23291 13.2685 9.23291C10.7104 9.23291 8.63672 11.3047 8.63672 13.8604C8.63672 16.4161 10.7104 18.4879 13.2685 18.4879Z" fill="white"/>
<path id="Vector_3" d="M23.6122 21.7134C26.1703 21.7134 28.244 19.6417 28.244 17.086C28.244 14.5303 26.1703 12.4585 23.6122 12.4585C21.0542 12.4585 18.9805 14.5303 18.9805 17.086C18.9805 19.6417 21.0542 21.7134 23.6122 21.7134Z" fill="white"/>
<path id="Vector_4" d="M13.5272 18.0628C14.9834 18.0628 16.1638 16.8834 16.1638 15.4286C16.1638 13.9738 14.9834 12.7944 13.5272 12.7944C12.0711 12.7944 10.8906 13.9738 10.8906 15.4286C10.8906 16.8834 12.0711 18.0628 13.5272 18.0628Z" fill="url(#paint1_linear_198_88)"/>
<path id="Vector_5" d="M22.6132 20.8987C24.0693 20.8987 25.2498 19.7194 25.2498 18.2645C25.2498 16.8097 24.0693 15.6304 22.6132 15.6304C21.157 15.6304 19.9766 16.8097 19.9766 18.2645C19.9766 19.7194 21.157 20.8987 22.6132 20.8987Z" fill="url(#paint2_linear_198_88)"/>
<path id="Vector_6" d="M13.994 10.6593C13.9638 10.6044 13.8497 10.3539 13.807 10.2989C13.3513 9.71138 12.4265 9.40154 11.5325 9.76026L10.7704 10.0231L12.6316 3.86318C12.7212 3.56914 12.6936 3.25184 12.5544 2.97769C12.4153 2.70355 12.1753 2.49381 11.8849 2.39238C11.7345 2.33984 11.575 2.31798 11.4159 2.32811C11.2569 2.33823 11.1015 2.38013 10.9589 2.45132C10.8164 2.52251 10.6896 2.62155 10.586 2.74258C10.4824 2.8636 10.4042 3.00415 10.356 3.15591L9.44764 6.05545L9.3459 6.02782L10.7509 1.63445C10.8514 1.3192 10.8232 0.977034 10.6723 0.682517C10.5214 0.388001 10.2601 0.165006 9.94532 0.0621272C9.78759 0.0105848 9.6212 -0.00919271 9.45577 0.00393915C9.29033 0.017071 9.12915 0.0628515 8.98155 0.138631C8.83394 0.214411 8.70284 0.318685 8.59584 0.445419C8.48884 0.572153 8.40806 0.71883 8.35817 0.876962L6.99655 5.17785C6.97011 5.1685 6.94348 5.16003 6.91698 5.15112L7.73505 2.489L7.96089 1.75417C8.05594 1.44489 8.02597 1.11071 7.87739 0.823238C7.72881 0.535765 7.47345 0.317865 7.16601 0.216221C6.8543 0.113222 6.51442 0.138097 6.22106 0.28538C5.92771 0.432662 5.70489 0.690296 5.6016 1.00165L4.40237 4.61685L4.31547 4.57592L4.98032 2.51599C5.07147 2.22898 5.04716 1.91779 4.91257 1.64837C4.77797 1.37896 4.54365 1.1725 4.25928 1.07275C3.97796 0.974019 3.66939 0.987386 3.39768 1.11007C3.12597 1.23275 2.91203 1.45532 2.80031 1.73151C2.07487 3.52482 0.818233 6.30138 0.477842 7.33034C-0.345071 9.39167 -0.187267 12.4042 1.59986 14.0658C2.30724 14.7238 3.18093 15.1765 4.12679 15.375C5.07264 15.5736 6.0548 15.5105 6.96743 15.1926C7.93503 14.903 8.27293 14.7408 8.65741 14.4935C9.43388 13.9939 10.8722 12.8864 11.7449 12.4673C12.2723 12.2139 12.9974 11.9823 13.4889 11.8384C13.6072 11.8048 13.7165 11.7452 13.8088 11.664C13.9011 11.5828 13.9741 11.482 14.0225 11.3691C14.0709 11.2561 14.0935 11.1337 14.0885 11.011C14.0836 10.8882 14.0513 10.768 13.994 10.6593Z" fill="#EAE8E8"/>
</g>
<defs>
<linearGradient id="paint0_linear_198_88" x1="13.5855" y1="31.3525" x2="22.0245" y2="4.28267" gradientUnits="userSpaceOnUse">
<stop stop-color="#FFC107"/>
<stop offset="1" stop-color="#FFC107"/>
</linearGradient>
<linearGradient id="paint1_linear_198_88" x1="11.0117" y1="14.6444" x2="16.0447" y2="16.2163" gradientUnits="userSpaceOnUse">
<stop stop-color="#464144"/>
<stop offset="0.292" stop-color="#363234"/>
<stop offset="0.68" stop-color="#282425"/>
<stop offset="1" stop-color="#231F20"/>
</linearGradient>
<linearGradient id="paint2_linear_198_88" x1="20.0982" y1="17.4786" x2="25.1312" y2="19.0505" gradientUnits="userSpaceOnUse">
<stop stop-color="#464144"/>
<stop offset="0.507" stop-color="#322E30"/>
<stop offset="1" stop-color="#231F20"/>
</linearGradient>
</defs>
</svg>